# Blender 4.3.2
# www.blender.org
mtllib key.mtl
o 立方体
v -1.156262 -2.153000 1.023828
v -1.156262 -1.683006 1.023828
v -1.156262 -2.153000 -1.096570
v -1.156262 -1.683006 -1.096570
v 0.541768 -2.153000 1.023828
v 0.541768 -1.683006 1.023828
v 0.541768 -2.153000 -1.096570
v 0.541768 -1.683006 -1.096570
v -1.124574 -1.255476 1.023828
v -1.124574 -0.785482 1.023828
v -1.124574 -1.255476 -1.096570
v -1.124574 -0.785482 -1.096570
v 0.580426 -1.255476 1.023828
v 0.580426 -0.785482 1.023828
v 0.580426 -1.255476 -1.096570
v 0.580426 -0.785482 -1.096570
v 0.618462 -2.148998 1.023828
v -0.086096 -2.148864 1.023828
v 0.618462 -2.148998 -1.096570
v -0.086096 -2.148864 -1.096570
v 0.619002 0.709054 1.023828
v -0.085556 0.709186 1.023828
v 0.619002 0.709054 -1.096570
v -0.085556 0.709186 -1.096570
v 1.642078 0.187692 1.023828
v -1.109538 0.188212 1.023828
v 1.642078 0.187692 -1.096570
v -1.109538 0.188212 -1.096570
v 1.642444 2.122220 1.023828
v -1.109172 2.122740 1.023828
v 1.642444 2.122220 -1.096570
v -1.109172 2.122740 -1.096570
vn -1.0000 -0.0000 -0.0000
vn -0.0000 -0.0000 -1.0000
vn 1.0000 -0.0000 -0.0000
vn -0.0000 -0.0000 1.0000
vn -0.0000 -1.0000 -0.0000
vn -0.0000 1.0000 -0.0000
vn -0.0002 -1.0000 -0.0000
vn 0.0002 1.0000 -0.0000
vn 1.0000 -0.0002 -0.0000
vn -1.0000 0.0002 -0.0000
vt 0.053631 0.551960
vt 0.107124 0.551960
vt 0.107124 0.605454
vt 0.053631 0.605454
vt 0.107124 0.658947
vt 0.053631 0.658947
vt 0.107124 0.712441
vt 0.053631 0.712441
vt 0.107124 0.765935
vt 0.053631 0.765935
vt 0.000137 0.658947
vt 0.000137 0.712441
vt 0.160618 0.658947
vt 0.160618 0.712441
vt 0.605346 0.448847
vt 0.658839 0.448847
vt 0.658839 0.502341
vt 0.605346 0.502341
vt 0.658839 0.556054
vt 0.605346 0.556054
vt 0.658839 0.609548
vt 0.605346 0.609548
vt 0.658839 0.663261
vt 0.605346 0.663261
vt 0.551632 0.556054
vt 0.551632 0.609548
vt 0.712552 0.556054
vt 0.712552 0.609548
vt 0.535658 0.000137
vt 0.551358 0.015827
vt 0.513544 0.053665
vt 0.497845 0.037975
vt 0.283743 0.283901
vt 0.268043 0.268211
vt 0.245929 0.321739
vt 0.230229 0.306049
vt 0.015837 0.551686
vt 0.000137 0.535996
vt 0.037951 0.038264
vt 0.000137 0.076102
vt 0.513834 0.513848
vt 0.476021 0.551686
vt 0.938548 0.000137
vt 0.999863 0.061413
vt 0.962049 0.099251
vt 0.900734 0.037975
vt 0.806503 0.255091
vt 0.745188 0.193815
vt 0.768690 0.292929
vt 0.707375 0.231653
vt 0.612947 0.448573
vt 0.551632 0.387297
vt 0.589446 0.038171
vt 0.551632 0.076009
vt 0.962246 0.410735
vt 0.924432 0.448573
s 1
usemtl マテリアル.009
f 1/1/1 2/2/1 4/3/1 3/4/1
f 3/4/2 4/3/2 8/5/2 7/6/2
f 7/6/3 8/5/3 6/7/3 5/8/3
f 5/8/4 6/7/4 2/9/4 1/10/4
f 3/11/5 7/6/5 5/8/5 1/12/5
f 8/5/6 4/13/6 2/14/6 6/7/6
f 9/15/1 10/16/1 12/17/1 11/18/1
f 11/18/2 12/17/2 16/19/2 15/20/2
f 15/20/3 16/19/3 14/21/3 13/22/3
f 13/22/4 14/21/4 10/23/4 9/24/4
f 11/25/5 15/20/5 13/22/5 9/26/5
f 16/19/6 12/27/6 10/28/6 14/21/6
f 17/29/7 18/30/7 20/31/7 19/32/7
f 19/32/2 20/31/2 24/33/2 23/34/2
f 23/34/8 24/33/8 22/35/8 21/36/8
f 21/36/4 22/35/4 18/37/4 17/38/4
f 19/39/9 23/34/9 21/36/9 17/40/9
f 24/33/10 20/41/10 18/42/10 22/35/10
f 25/43/7 26/44/7 28/45/7 27/46/7
f 27/46/2 28/45/2 32/47/2 31/48/2
f 31/48/8 32/47/8 30/49/8 29/50/8
f 29/50/4 30/49/4 26/51/4 25/52/4
f 27/53/9 31/48/9 29/50/9 25/54/9
f 32/47/10 28/55/10 26/56/10 30/49/10
