# Blender 4.1.1
# www.blender.org
mtllib stage.mtl
o 立方体.002
v 100.478210 1.000031 100.000000
v -99.521767 0.999998 100.000000
v 100.478210 1.000003 -100.000000
v 100.478210 -0.999971 100.000000
v 100.478210 -1.000000 -100.000000
v -99.521767 -0.999998 100.000000
v -99.521774 -1.000033 -99.999992
v -99.521774 0.999969 -99.999992
v -38.917290 -4.406739 -46.688030
v -38.917290 -4.406742 -72.943604
v -38.917290 25.177843 -46.688030
v -18.578396 -4.406739 -46.688030
v -18.578396 -4.406742 -72.943604
v -18.578396 25.177843 -46.688030
v -18.578396 25.177841 -72.943604
v -38.917290 25.177841 -72.943604
v -56.548325 22.943184 -54.815815
v -56.548325 22.943182 -64.815811
v -56.548325 24.159519 -54.815815
v -46.548325 22.943184 -54.815815
v -46.548325 22.943182 -64.815811
v -46.548325 24.159519 -54.815815
v -46.548325 24.159517 -64.815811
v -56.548325 24.159517 -64.815811
v -22.224369 1.000000 5.123997
v -22.224369 0.999999 -6.875999
v -22.224369 7.000000 5.123997
v -10.224373 1.000000 5.123997
v -10.224373 0.999999 -6.875999
v -10.224373 7.000000 5.123997
v -10.224373 7.000000 -6.875999
v -22.224369 7.000000 -6.875999
v -38.769409 1.000000 5.123997
v -38.769409 0.999999 -6.875999
v -38.769409 11.000001 5.123996
v -26.769409 1.000000 5.123997
v -26.769409 0.999999 -6.875999
v -26.769409 11.000001 5.123996
v -26.769409 11.000000 -6.876000
v -38.769409 11.000000 -6.876000
v -38.769409 1.000000 5.123997
v -38.769409 0.999999 -6.875999
v -38.769409 11.000001 5.123996
v -26.769409 1.000000 5.123997
v -26.769409 0.999999 -6.875999
v -26.769409 11.000001 5.123996
v -26.769409 11.000000 -6.876000
v -38.769409 11.000000 -6.876000
v -75.826889 1.000000 5.123997
v -75.826889 0.999999 -6.875999
v -75.826889 11.000001 5.123996
v -45.826897 1.000000 5.123997
v -45.826897 0.999999 -6.875999
v -45.826897 11.000001 5.123996
v -45.826897 11.000000 -6.876000
v -75.826889 11.000000 -6.876000
v -75.826889 1.000002 22.794575
v -75.826889 1.000001 10.794567
v -75.826889 11.000003 22.794575
v -45.826897 1.000002 22.794575
v -45.826897 1.000001 10.794567
v -45.826897 11.000003 22.794575
v -45.826897 11.000002 10.794566
v -75.826889 11.000002 10.794566
v -75.826889 1.000003 42.745815
v -75.826889 1.000002 30.745800
v -75.826889 11.000004 42.745815
v -45.826897 1.000003 42.745815
v -45.826897 1.000002 30.745800
v -45.826897 11.000004 42.745815
v -45.826897 11.000003 30.745800
v -75.826889 11.000003 30.745800
v -41.890274 4.373346 42.372372
v -41.890274 4.373345 30.372364
v -41.890274 14.373343 42.372372
v -25.890274 4.373346 42.372372
v -25.890274 4.373345 30.372364
v -25.890274 14.373343 42.372372
v -25.890274 14.373343 30.372362
v -41.890274 14.373343 30.372362
v -19.518833 4.373346 42.372372
v -19.518833 4.373345 30.372364
v -19.518833 14.373343 42.372372
v -3.518833 4.373346 42.372372
v -3.518833 4.373345 30.372364
v -3.518833 14.373343 42.372372
v -3.518833 14.373343 30.372362
v -19.518833 14.373343 30.372362
v 3.375862 4.373346 42.372372
v 3.375862 4.373345 30.372364
v 3.375862 14.373343 42.372372
v 51.525578 4.373346 42.372372
v 51.525578 4.373345 30.372364
v 51.525578 14.373343 42.372372
v 51.525578 14.373343 30.372362
v 3.375862 14.373343 30.372362
v 19.069698 -4.406739 -46.688030
v 19.069698 -4.406742 -72.943604
v 19.069698 25.177843 -46.688030
v 39.408573 -4.406739 -46.688030
v 39.408573 -4.406742 -72.943604
v 39.408573 25.177843 -46.688030
v 39.408573 25.177841 -72.943604
v 19.069698 25.177841 -72.943604
v -10.381882 -4.406739 -46.688030
v -10.381882 -4.406742 -72.943604
v -10.381882 25.177843 -46.688030
v 9.957008 -4.406739 -46.688030
v 9.957008 -4.406742 -72.943604
v 9.957008 25.177843 -46.688030
v 9.957008 25.177841 -72.943604
v -10.381882 25.177841 -72.943604
v -56.548321 22.943186 -36.864170
v -56.548321 22.943184 -46.864170
v -56.548321 24.159521 -36.864170
v -46.548321 22.943186 -36.864170
v -46.548321 22.943184 -46.864170
v -46.548321 24.159521 -36.864170
v -46.548321 24.159519 -46.864170
v -56.548321 24.159519 -46.864170
v -56.548321 22.943186 -20.355562
v -56.548321 22.943186 -30.355560
v -56.548321 24.159521 -20.355562
v -46.548321 22.943186 -20.355562
v -46.548321 22.943186 -30.355560
v -46.548321 24.159521 -20.355562
v -46.548321 24.159521 -30.355560
v -56.548321 24.159521 -30.355560
v -56.548321 22.943188 -3.397772
v -56.548321 22.943186 -13.397772
v -56.548321 24.159523 -3.397772
v -46.548321 22.943188 -3.397772
v -46.548321 22.943186 -13.397772
v -46.548321 24.159523 -3.397772
v -46.548321 24.159521 -13.397772
v -56.548321 24.159521 -13.397772
v -38.036705 22.943188 -3.397772
v -38.036705 22.943186 -13.397772
v -38.036705 24.159523 -3.397772
v -28.036703 22.943188 -3.397772
v -28.036703 22.943186 -13.397772
v -28.036703 24.159523 -3.397772
v -28.036703 24.159521 -13.397772
v -38.036705 24.159521 -13.397772
v -19.639223 22.943188 -3.397772
v -19.639223 22.943186 -13.397772
v -19.639223 24.159523 -3.397772
v -9.639225 22.943188 -3.397772
v -9.639225 22.943186 -13.397772
v -9.639225 24.159523 -3.397772
v -9.639225 24.159521 -13.397772
v -19.639223 24.159521 -13.397772
v -0.321835 22.943188 -3.397772
v -0.321835 22.943186 -13.397772
v -0.321835 24.159523 -3.397772
v 9.678165 22.943188 -3.397772
v 9.678165 22.943186 -13.397772
v 9.678165 24.159523 -3.397772
v 9.678165 24.159521 -13.397772
v -0.321835 24.159521 -13.397772
v 17.321789 22.943188 -3.397772
v 17.321789 22.943186 -13.397772
v 17.321789 24.159523 -3.397772
v 27.321789 22.943188 -3.397772
v 27.321789 22.943186 -13.397772
v 27.321789 24.159523 -3.397772
v 27.321789 24.159521 -13.397772
v 17.321789 24.159521 -13.397772
v 34.995144 22.943188 -3.397772
v 34.995144 22.943186 -13.397772
v 34.995144 24.159523 -3.397772
v 44.995144 22.943188 -3.397772
v 44.995144 22.943186 -13.397772
v 44.995144 24.159523 -3.397772
v 44.995144 24.159521 -13.397772
v 34.995144 24.159521 -13.397772
v 52.350674 22.943188 -3.397772
v 52.350674 22.943186 -13.397772
v 52.350674 24.159523 -3.397772
v 62.350674 22.943188 -3.397772
v 62.350674 22.943186 -13.397772
v 62.350674 24.159523 -3.397772
v 62.350674 24.159521 -13.397772
v 52.350674 24.159521 -13.397772
v 52.350674 22.943186 -18.408155
v 52.350674 22.943186 -28.408155
v 52.350674 24.159521 -18.408155
v 62.350674 22.943186 -18.408155
v 62.350674 22.943186 -28.408155
v 62.350674 24.159521 -18.408155
v 62.350674 24.159521 -28.408155
v 52.350674 24.159521 -28.408155
v 52.350674 22.943186 -33.752388
v 52.350674 22.943184 -43.752388
v 52.350674 24.159521 -33.752388
v 62.350674 22.943186 -33.752388
v 62.350674 22.943184 -43.752388
v 62.350674 24.159521 -33.752388
v 62.350674 24.159519 -43.752388
v 52.350674 24.159519 -43.752388
v 52.350674 22.943184 -50.120167
v 52.350674 22.943184 -60.120167
v 52.350674 24.159519 -50.120167
v 62.350674 22.943184 -50.120167
v 62.350674 22.943184 -60.120167
v 62.350674 24.159519 -50.120167
v 62.350674 24.159519 -60.120167
v 52.350674 24.159519 -60.120167
v 42.963619 22.943182 -64.140236
v 42.963619 22.943182 -74.140236
v 42.963619 24.159517 -64.140236
v 52.963619 22.943182 -64.140236
v 52.963619 22.943182 -74.140236
v 52.963619 24.159517 -64.140236
v 52.963619 24.159517 -74.140236
v 42.963619 24.159517 -74.140236
v -0.999989 -1.000002 1.000000
v -0.999989 -1.000002 -0.999996
v -0.999989 1.000000 1.000000
v 1.000008 -1.000002 1.000000
v 1.000008 -1.000002 -0.999996
v 1.000008 1.000000 1.000000
v 1.000008 1.000000 -0.999996
v -0.999989 1.000000 -0.999996
v 67.059967 1.000001 14.359409
v 67.059967 1.000000 4.359409
v 67.059967 29.000002 14.359407
v 77.059967 1.000001 14.359409
v 77.059967 1.000000 4.359409
v 77.059967 29.000002 14.359407
v 77.059967 29.000000 4.359406
v 67.059967 29.000000 4.359406
v 67.059967 1.000003 34.676266
v 67.059967 1.000002 24.676266
v 67.059967 29.000002 34.676262
v 77.059967 1.000003 34.676266
v 77.059967 1.000002 24.676266
v 77.059967 29.000002 34.676262
v 77.059967 29.000002 24.676264
v 67.059967 29.000002 24.676264
v 67.083511 29.000002 34.452309
v 67.083511 29.000002 32.452309
v 67.083511 31.000004 34.452309
v 69.083527 29.000002 34.452309
v 69.083527 29.000002 32.452309
v 69.083527 31.000004 34.452309
v 69.083527 31.000004 32.452309
v 67.083511 31.000004 32.452309
v 67.083511 29.000004 38.875626
v 67.083511 29.000002 36.875618
v 67.083511 31.000006 38.875626
v 69.083527 29.000004 38.875626
v 69.083527 29.000002 36.875618
v 69.083527 31.000006 38.875626
v 69.083527 31.000004 36.875618
v 67.083511 31.000004 36.875618
v 67.083511 29.000004 43.088966
v 67.083511 29.000004 41.088959
v 67.083511 31.000006 43.088966
v 69.083527 29.000004 43.088966
v 69.083527 29.000004 41.088959
v 69.083527 31.000006 43.088966
v 69.083527 31.000006 41.088959
v 67.083511 31.000006 41.088959
v 67.083511 29.000004 47.603195
v 67.083511 29.000004 45.603188
v 67.083511 31.000006 47.603195
v 69.083527 29.000004 47.603195
v 69.083527 29.000004 45.603188
v 69.083527 31.000006 47.603195
v 69.083527 31.000006 45.603188
v 67.083511 31.000006 45.603188
v 67.083511 29.000004 51.564095
v 67.083511 29.000004 49.564079
v 67.083511 31.000006 51.564095
v 69.083527 29.000004 51.564095
v 69.083527 29.000004 49.564079
v 69.083527 31.000006 51.564095
v 69.083527 31.000006 49.564079
v 67.083511 31.000006 49.564079
v 62.895435 29.000004 51.564095
v 62.895435 29.000004 49.564079
v 62.895435 31.000006 51.564095
v 64.895447 29.000004 51.564095
v 64.895447 29.000004 49.564079
v 64.895447 31.000006 51.564095
v 64.895447 31.000006 49.564079
v 62.895435 31.000006 49.564079
v 58.630795 29.000004 51.564095
v 58.630795 29.000004 49.564079
v 58.630795 31.000006 51.564095
v 60.630802 29.000004 51.564095
v 60.630802 29.000004 49.564079
v 60.630802 31.000006 51.564095
v 60.630802 31.000006 49.564079
v 58.630795 31.000006 49.564079
v 54.727520 29.000004 51.564095
v 54.727520 29.000004 49.564079
v 54.727520 31.000006 51.564095
v 56.727528 29.000004 51.564095
v 56.727528 29.000004 49.564079
v 56.727528 31.000006 51.564095
v 56.727528 31.000006 49.564079
v 54.727520 31.000006 49.564079
v 50.830578 29.000004 51.564095
v 50.830578 29.000004 49.564079
v 50.830578 31.000006 51.564095
v 52.830585 29.000004 51.564095
v 52.830585 29.000004 49.564079
v 52.830585 31.000006 51.564095
v 52.830585 31.000006 49.564079
v 50.830578 31.000006 49.564079
v 47.101696 29.000004 51.564095
v 47.101696 29.000004 49.564079
v 47.101696 31.000006 51.564095
v 49.101696 29.000004 51.564095
v 49.101696 29.000004 49.564079
v 49.101696 31.000006 51.564095
v 49.101696 31.000006 49.564079
v 47.101696 31.000006 49.564079
v 39.410534 28.269524 53.564087
v 39.410534 28.269524 47.564087
v 39.410534 30.269524 53.564087
v 45.410542 28.269524 53.564087
v 45.410542 28.269524 47.564087
v 45.410542 30.269524 53.564087
v 45.410542 30.269524 47.564087
v 39.410534 30.269524 47.564087
v -16.384357 0.040812 55.445004
v -16.692287 0.992220 55.445004
v -16.384357 0.040812 49.445004
v -16.692287 0.992220 49.445004
v 40.700253 18.516417 55.445004
v 40.392315 19.467827 55.445004
v 40.700253 18.516417 49.445004
v 40.392315 19.467827 49.445004
vn -0.0000 1.0000 -0.0000
vn -0.0000 -0.0000 1.0000
vn 1.0000 -0.0000 -0.0000
vn -0.0000 -1.0000 -0.0000
vn -1.0000 -0.0000 -0.0000
vn -0.0000 -0.0000 -1.0000
vn -0.9514 -0.3079 -0.0000
vn 0.9514 0.3079 -0.0000
vn 0.3079 -0.9514 -0.0000
vn -0.3079 0.9514 -0.0000
vt 0.000000 0.000000
vt 0.375000 0.500000
vt 0.125000 0.750000
vt 0.125000 0.500000
vt 0.625000 0.000000
vt 0.375000 0.250000
vt 0.375000 0.000000
vt 0.625000 0.750000
vt 0.375000 1.000000
vt 0.375000 0.750000
vt 0.625000 0.500000
vt 0.875000 0.500000
vt 0.625000 0.250000
vt 0.625000 1.000000
vt 0.875000 0.750000
s 1
usemtl Material.001
f 3/1/1 2/1/1 1/1/1
f 1/1/2 6/1/2 4/1/2
f 3/1/3 4/1/3 5/1/3
f 5/1/4 6/1/4 7/1/4
f 2/1/5 7/1/5 6/1/5
f 8/1/6 5/1/6 7/1/6
s 0
f 13/2/4 9/3/4 10/4/4
f 11/5/5 10/6/5 9/7/5
f 14/8/2 9/9/2 12/10/2
f 15/11/3 12/10/3 13/2/3
f 16/12/1 14/8/1 15/11/1
f 16/13/6 13/2/6 10/6/6
f 21/2/4 17/3/4 18/4/4
f 19/5/5 18/6/5 17/7/5
f 22/8/2 17/9/2 20/10/2
f 23/11/3 20/10/3 21/2/3
f 24/12/1 22/8/1 23/11/1
f 24/13/6 21/2/6 18/6/6
f 27/5/5 26/6/5 25/7/5
f 29/2/4 25/3/4 26/4/4
f 30/8/2 25/9/2 28/10/2
f 31/11/3 28/10/3 29/2/3
f 32/12/1 30/8/1 31/11/1
f 32/13/6 29/2/6 26/6/6
f 35/5/5 34/6/5 33/7/5
f 37/2/4 33/3/4 34/4/4
f 38/8/2 33/9/2 36/10/2
f 39/11/3 36/10/3 37/2/3
f 40/12/1 38/8/1 39/11/1
f 40/13/6 37/2/6 34/6/6
f 43/5/5 42/6/5 41/7/5
f 45/2/4 41/3/4 42/4/4
f 46/8/2 41/9/2 44/10/2
f 47/11/3 44/10/3 45/2/3
f 48/12/1 46/8/1 47/11/1
f 48/13/6 45/2/6 42/6/6
f 51/5/5 50/6/5 49/7/5
f 53/2/4 49/3/4 50/4/4
f 54/8/2 49/9/2 52/10/2
f 55/11/3 52/10/3 53/2/3
f 56/12/1 54/8/1 55/11/1
f 56/13/6 53/2/6 50/6/6
f 59/5/5 58/6/5 57/7/5
f 61/2/4 57/3/4 58/4/4
f 62/8/2 57/9/2 60/10/2
f 63/11/3 60/10/3 61/2/3
f 64/12/1 62/8/1 63/11/1
f 64/13/6 61/2/6 58/6/6
f 67/5/5 66/6/5 65/7/5
f 69/2/4 65/3/4 66/4/4
f 70/8/2 65/9/2 68/10/2
f 71/11/3 68/10/3 69/2/3
f 72/12/1 70/8/1 71/11/1
f 72/13/6 69/2/6 66/6/6
f 75/5/5 74/6/5 73/7/5
f 77/2/4 73/3/4 74/4/4
f 78/8/2 73/9/2 76/10/2
f 79/11/3 76/10/3 77/2/3
f 80/12/1 78/8/1 79/11/1
f 80/13/6 77/2/6 74/6/6
f 83/5/5 82/6/5 81/7/5
f 85/2/4 81/3/4 82/4/4
f 86/8/2 81/9/2 84/10/2
f 87/11/3 84/10/3 85/2/3
f 88/12/1 86/8/1 87/11/1
f 88/13/6 85/2/6 82/6/6
f 91/5/5 90/6/5 89/7/5
f 93/2/4 89/3/4 90/4/4
f 94/8/2 89/9/2 92/10/2
f 95/11/3 92/10/3 93/2/3
f 96/12/1 94/8/1 95/11/1
f 96/13/6 93/2/6 90/6/6
f 99/5/5 98/6/5 97/7/5
f 101/2/4 97/3/4 98/4/4
f 102/8/2 97/9/2 100/10/2
f 103/11/3 100/10/3 101/2/3
f 104/12/1 102/8/1 103/11/1
f 104/13/6 101/2/6 98/6/6
f 107/5/5 106/6/5 105/7/5
f 109/2/4 105/3/4 106/4/4
f 110/8/2 105/9/2 108/10/2
f 111/11/3 108/10/3 109/2/3
f 112/12/1 110/8/1 111/11/1
f 112/13/6 109/2/6 106/6/6
f 115/5/5 114/6/5 113/7/5
f 117/2/4 113/3/4 114/4/4
f 118/8/2 113/9/2 116/10/2
f 119/11/3 116/10/3 117/2/3
f 120/12/1 118/8/1 119/11/1
f 120/13/6 117/2/6 114/6/6
f 123/5/5 122/6/5 121/7/5
f 125/2/4 121/3/4 122/4/4
f 126/8/2 121/9/2 124/10/2
f 127/11/3 124/10/3 125/2/3
f 128/12/1 126/8/1 127/11/1
f 128/13/6 125/2/6 122/6/6
f 131/5/5 130/6/5 129/7/5
f 133/2/4 129/3/4 130/4/4
f 134/8/2 129/9/2 132/10/2
f 135/11/3 132/10/3 133/2/3
f 136/12/1 134/8/1 135/11/1
f 136/13/6 133/2/6 130/6/6
f 139/5/5 138/6/5 137/7/5
f 141/2/4 137/3/4 138/4/4
f 142/8/2 137/9/2 140/10/2
f 143/11/3 140/10/3 141/2/3
f 144/12/1 142/8/1 143/11/1
f 144/13/6 141/2/6 138/6/6
f 147/5/5 146/6/5 145/7/5
f 149/2/4 145/3/4 146/4/4
f 150/8/2 145/9/2 148/10/2
f 151/11/3 148/10/3 149/2/3
f 152/12/1 150/8/1 151/11/1
f 152/13/6 149/2/6 146/6/6
f 155/5/5 154/6/5 153/7/5
f 157/2/4 153/3/4 154/4/4
f 158/8/2 153/9/2 156/10/2
f 159/11/3 156/10/3 157/2/3
f 160/12/1 158/8/1 159/11/1
f 160/13/6 157/2/6 154/6/6
f 163/5/5 162/6/5 161/7/5
f 165/2/4 161/3/4 162/4/4
f 166/8/2 161/9/2 164/10/2
f 167/11/3 164/10/3 165/2/3
f 168/12/1 166/8/1 167/11/1
f 168/13/6 165/2/6 162/6/6
f 171/5/5 170/6/5 169/7/5
f 173/2/4 169/3/4 170/4/4
f 174/8/2 169/9/2 172/10/2
f 175/11/3 172/10/3 173/2/3
f 176/12/1 174/8/1 175/11/1
f 176/13/6 173/2/6 170/6/6
f 179/5/5 178/6/5 177/7/5
f 181/2/4 177/3/4 178/4/4
f 182/8/2 177/9/2 180/10/2
f 183/11/3 180/10/3 181/2/3
f 184/12/1 182/8/1 183/11/1
f 184/13/6 181/2/6 178/6/6
f 187/5/5 186/6/5 185/7/5
f 189/2/4 185/3/4 186/4/4
f 190/8/2 185/9/2 188/10/2
f 191/11/3 188/10/3 189/2/3
f 192/12/1 190/8/1 191/11/1
f 192/13/6 189/2/6 186/6/6
f 195/5/5 194/6/5 193/7/5
f 197/2/4 193/3/4 194/4/4
f 198/8/2 193/9/2 196/10/2
f 199/11/3 196/10/3 197/2/3
f 200/12/1 198/8/1 199/11/1
f 200/13/6 197/2/6 194/6/6
f 203/5/5 202/6/5 201/7/5
f 205/2/4 201/3/4 202/4/4
f 206/8/2 201/9/2 204/10/2
f 207/11/3 204/10/3 205/2/3
f 208/12/1 206/8/1 207/11/1
f 208/13/6 205/2/6 202/6/6
f 211/5/5 210/6/5 209/7/5
f 213/2/4 209/3/4 210/4/4
f 214/8/2 209/9/2 212/10/2
f 215/11/3 212/10/3 213/2/3
f 216/12/1 214/8/1 215/11/1
f 216/13/6 213/2/6 210/6/6
f 221/2/4 217/3/4 218/4/4
f 219/5/5 218/6/5 217/7/5
f 222/8/2 217/9/2 220/10/2
f 223/11/3 220/10/3 221/2/3
f 224/12/1 222/8/1 223/11/1
f 224/13/6 221/2/6 218/6/6
f 229/2/4 225/3/4 226/4/4
f 227/5/5 226/6/5 225/7/5
f 230/8/2 225/9/2 228/10/2
f 231/11/3 228/10/3 229/2/3
f 232/12/1 230/8/1 231/11/1
f 232/13/6 229/2/6 226/6/6
f 237/2/4 233/3/4 234/4/4
f 235/5/5 234/6/5 233/7/5
f 238/8/2 233/9/2 236/10/2
f 239/11/3 236/10/3 237/2/3
f 240/12/1 238/8/1 239/11/1
f 240/13/6 237/2/6 234/6/6
f 245/2/4 241/3/4 242/4/4
f 243/5/5 242/6/5 241/7/5
f 246/8/2 241/9/2 244/10/2
f 247/11/3 244/10/3 245/2/3
f 248/12/1 246/8/1 247/11/1
f 248/13/6 245/2/6 242/6/6
f 253/2/4 249/3/4 250/4/4
f 251/5/5 250/6/5 249/7/5
f 254/8/2 249/9/2 252/10/2
f 255/11/3 252/10/3 253/2/3
f 256/12/1 254/8/1 255/11/1
f 256/13/6 253/2/6 250/6/6
f 261/2/4 257/3/4 258/4/4
f 259/5/5 258/6/5 257/7/5
f 262/8/2 257/9/2 260/10/2
f 263/11/3 260/10/3 261/2/3
f 264/12/1 262/8/1 263/11/1
f 264/13/6 261/2/6 258/6/6
f 269/2/4 265/3/4 266/4/4
f 267/5/5 266/6/5 265/7/5
f 270/8/2 265/9/2 268/10/2
f 271/11/3 268/10/3 269/2/3
f 272/12/1 270/8/1 271/11/1
f 272/13/6 269/2/6 266/6/6
f 277/2/4 273/3/4 274/4/4
f 275/5/5 274/6/5 273/7/5
f 278/8/2 273/9/2 276/10/2
f 279/11/3 276/10/3 277/2/3
f 280/12/1 278/8/1 279/11/1
f 280/13/6 277/2/6 274/6/6
f 285/2/4 281/3/4 282/4/4
f 283/5/5 282/6/5 281/7/5
f 286/8/2 281/9/2 284/10/2
f 287/11/3 284/10/3 285/2/3
f 288/12/1 286/8/1 287/11/1
f 288/13/6 285/2/6 282/6/6
f 293/2/4 289/3/4 290/4/4
f 291/5/5 290/6/5 289/7/5
f 294/8/2 289/9/2 292/10/2
f 295/11/3 292/10/3 293/2/3
f 296/12/1 294/8/1 295/11/1
f 296/13/6 293/2/6 290/6/6
f 301/2/4 297/3/4 298/4/4
f 299/5/5 298/6/5 297/7/5
f 302/8/2 297/9/2 300/10/2
f 303/11/3 300/10/3 301/2/3
f 304/12/1 302/8/1 303/11/1
f 304/13/6 301/2/6 298/6/6
f 309/2/4 305/3/4 306/4/4
f 307/5/5 306/6/5 305/7/5
f 310/8/2 305/9/2 308/10/2
f 311/11/3 308/10/3 309/2/3
f 312/12/1 310/8/1 311/11/1
f 312/13/6 309/2/6 306/6/6
f 317/2/4 313/3/4 314/4/4
f 315/5/5 314/6/5 313/7/5
f 318/8/2 313/9/2 316/10/2
f 319/11/3 316/10/3 317/2/3
f 320/12/1 318/8/1 319/11/1
f 320/13/6 317/2/6 314/6/6
f 325/2/4 321/3/4 322/4/4
f 323/5/5 322/6/5 321/7/5
f 326/8/2 321/9/2 324/10/2
f 327/11/3 324/10/3 325/2/3
f 328/12/1 326/8/1 327/11/1
f 328/13/6 325/2/6 322/6/6
f 330/5/7 331/6/7 329/7/7
f 331/6/6 336/11/6 335/2/6
f 336/11/8 333/10/8 335/2/8
f 334/8/2 329/9/2 333/10/2
f 335/2/9 329/3/9 331/4/9
f 332/12/10 334/8/10 336/11/10
s 1
f 3/1/1 8/1/1 2/1/1
f 1/1/2 2/1/2 6/1/2
f 3/1/3 1/1/3 4/1/3
f 5/1/4 4/1/4 6/1/4
f 2/1/5 8/1/5 7/1/5
f 8/1/6 3/1/6 5/1/6
s 0
f 13/2/4 12/10/4 9/3/4
f 11/5/5 16/13/5 10/6/5
f 14/8/2 11/14/2 9/9/2
f 15/11/3 14/8/3 12/10/3
f 16/12/1 11/15/1 14/8/1
f 16/13/6 15/11/6 13/2/6
f 21/2/4 20/10/4 17/3/4
f 19/5/5 24/13/5 18/6/5
f 22/8/2 19/14/2 17/9/2
f 23/11/3 22/8/3 20/10/3
f 24/12/1 19/15/1 22/8/1
f 24/13/6 23/11/6 21/2/6
f 27/5/5 32/13/5 26/6/5
f 29/2/4 28/10/4 25/3/4
f 30/8/2 27/14/2 25/9/2
f 31/11/3 30/8/3 28/10/3
f 32/12/1 27/15/1 30/8/1
f 32/13/6 31/11/6 29/2/6
f 35/5/5 40/13/5 34/6/5
f 37/2/4 36/10/4 33/3/4
f 38/8/2 35/14/2 33/9/2
f 39/11/3 38/8/3 36/10/3
f 40/12/1 35/15/1 38/8/1
f 40/13/6 39/11/6 37/2/6
f 43/5/5 48/13/5 42/6/5
f 45/2/4 44/10/4 41/3/4
f 46/8/2 43/14/2 41/9/2
f 47/11/3 46/8/3 44/10/3
f 48/12/1 43/15/1 46/8/1
f 48/13/6 47/11/6 45/2/6
f 51/5/5 56/13/5 50/6/5
f 53/2/4 52/10/4 49/3/4
f 54/8/2 51/14/2 49/9/2
f 55/11/3 54/8/3 52/10/3
f 56/12/1 51/15/1 54/8/1
f 56/13/6 55/11/6 53/2/6
f 59/5/5 64/13/5 58/6/5
f 61/2/4 60/10/4 57/3/4
f 62/8/2 59/14/2 57/9/2
f 63/11/3 62/8/3 60/10/3
f 64/12/1 59/15/1 62/8/1
f 64/13/6 63/11/6 61/2/6
f 67/5/5 72/13/5 66/6/5
f 69/2/4 68/10/4 65/3/4
f 70/8/2 67/14/2 65/9/2
f 71/11/3 70/8/3 68/10/3
f 72/12/1 67/15/1 70/8/1
f 72/13/6 71/11/6 69/2/6
f 75/5/5 80/13/5 74/6/5
f 77/2/4 76/10/4 73/3/4
f 78/8/2 75/14/2 73/9/2
f 79/11/3 78/8/3 76/10/3
f 80/12/1 75/15/1 78/8/1
f 80/13/6 79/11/6 77/2/6
f 83/5/5 88/13/5 82/6/5
f 85/2/4 84/10/4 81/3/4
f 86/8/2 83/14/2 81/9/2
f 87/11/3 86/8/3 84/10/3
f 88/12/1 83/15/1 86/8/1
f 88/13/6 87/11/6 85/2/6
f 91/5/5 96/13/5 90/6/5
f 93/2/4 92/10/4 89/3/4
f 94/8/2 91/14/2 89/9/2
f 95/11/3 94/8/3 92/10/3
f 96/12/1 91/15/1 94/8/1
f 96/13/6 95/11/6 93/2/6
f 99/5/5 104/13/5 98/6/5
f 101/2/4 100/10/4 97/3/4
f 102/8/2 99/14/2 97/9/2
f 103/11/3 102/8/3 100/10/3
f 104/12/1 99/15/1 102/8/1
f 104/13/6 103/11/6 101/2/6
f 107/5/5 112/13/5 106/6/5
f 109/2/4 108/10/4 105/3/4
f 110/8/2 107/14/2 105/9/2
f 111/11/3 110/8/3 108/10/3
f 112/12/1 107/15/1 110/8/1
f 112/13/6 111/11/6 109/2/6
f 115/5/5 120/13/5 114/6/5
f 117/2/4 116/10/4 113/3/4
f 118/8/2 115/14/2 113/9/2
f 119/11/3 118/8/3 116/10/3
f 120/12/1 115/15/1 118/8/1
f 120/13/6 119/11/6 117/2/6
f 123/5/5 128/13/5 122/6/5
f 125/2/4 124/10/4 121/3/4
f 126/8/2 123/14/2 121/9/2
f 127/11/3 126/8/3 124/10/3
f 128/12/1 123/15/1 126/8/1
f 128/13/6 127/11/6 125/2/6
f 131/5/5 136/13/5 130/6/5
f 133/2/4 132/10/4 129/3/4
f 134/8/2 131/14/2 129/9/2
f 135/11/3 134/8/3 132/10/3
f 136/12/1 131/15/1 134/8/1
f 136/13/6 135/11/6 133/2/6
f 139/5/5 144/13/5 138/6/5
f 141/2/4 140/10/4 137/3/4
f 142/8/2 139/14/2 137/9/2
f 143/11/3 142/8/3 140/10/3
f 144/12/1 139/15/1 142/8/1
f 144/13/6 143/11/6 141/2/6
f 147/5/5 152/13/5 146/6/5
f 149/2/4 148/10/4 145/3/4
f 150/8/2 147/14/2 145/9/2
f 151/11/3 150/8/3 148/10/3
f 152/12/1 147/15/1 150/8/1
f 152/13/6 151/11/6 149/2/6
f 155/5/5 160/13/5 154/6/5
f 157/2/4 156/10/4 153/3/4
f 158/8/2 155/14/2 153/9/2
f 159/11/3 158/8/3 156/10/3
f 160/12/1 155/15/1 158/8/1
f 160/13/6 159/11/6 157/2/6
f 163/5/5 168/13/5 162/6/5
f 165/2/4 164/10/4 161/3/4
f 166/8/2 163/14/2 161/9/2
f 167/11/3 166/8/3 164/10/3
f 168/12/1 163/15/1 166/8/1
f 168/13/6 167/11/6 165/2/6
f 171/5/5 176/13/5 170/6/5
f 173/2/4 172/10/4 169/3/4
f 174/8/2 171/14/2 169/9/2
f 175/11/3 174/8/3 172/10/3
f 176/12/1 171/15/1 174/8/1
f 176/13/6 175/11/6 173/2/6
f 179/5/5 184/13/5 178/6/5
f 181/2/4 180/10/4 177/3/4
f 182/8/2 179/14/2 177/9/2
f 183/11/3 182/8/3 180/10/3
f 184/12/1 179/15/1 182/8/1
f 184/13/6 183/11/6 181/2/6
f 187/5/5 192/13/5 186/6/5
f 189/2/4 188/10/4 185/3/4
f 190/8/2 187/14/2 185/9/2
f 191/11/3 190/8/3 188/10/3
f 192/12/1 187/15/1 190/8/1
f 192/13/6 191/11/6 189/2/6
f 195/5/5 200/13/5 194/6/5
f 197/2/4 196/10/4 193/3/4
f 198/8/2 195/14/2 193/9/2
f 199/11/3 198/8/3 196/10/3
f 200/12/1 195/15/1 198/8/1
f 200/13/6 199/11/6 197/2/6
f 203/5/5 208/13/5 202/6/5
f 205/2/4 204/10/4 201/3/4
f 206/8/2 203/14/2 201/9/2
f 207/11/3 206/8/3 204/10/3
f 208/12/1 203/15/1 206/8/1
f 208/13/6 207/11/6 205/2/6
f 211/5/5 216/13/5 210/6/5
f 213/2/4 212/10/4 209/3/4
f 214/8/2 211/14/2 209/9/2
f 215/11/3 214/8/3 212/10/3
f 216/12/1 211/15/1 214/8/1
f 216/13/6 215/11/6 213/2/6
f 221/2/4 220/10/4 217/3/4
f 219/5/5 224/13/5 218/6/5
f 222/8/2 219/14/2 217/9/2
f 223/11/3 222/8/3 220/10/3
f 224/12/1 219/15/1 222/8/1
f 224/13/6 223/11/6 221/2/6
f 229/2/4 228/10/4 225/3/4
f 227/5/5 232/13/5 226/6/5
f 230/8/2 227/14/2 225/9/2
f 231/11/3 230/8/3 228/10/3
f 232/12/1 227/15/1 230/8/1
f 232/13/6 231/11/6 229/2/6
f 237/2/4 236/10/4 233/3/4
f 235/5/5 240/13/5 234/6/5
f 238/8/2 235/14/2 233/9/2
f 239/11/3 238/8/3 236/10/3
f 240/12/1 235/15/1 238/8/1
f 240/13/6 239/11/6 237/2/6
f 245/2/4 244/10/4 241/3/4
f 243/5/5 248/13/5 242/6/5
f 246/8/2 243/14/2 241/9/2
f 247/11/3 246/8/3 244/10/3
f 248/12/1 243/15/1 246/8/1
f 248/13/6 247/11/6 245/2/6
f 253/2/4 252/10/4 249/3/4
f 251/5/5 256/13/5 250/6/5
f 254/8/2 251/14/2 249/9/2
f 255/11/3 254/8/3 252/10/3
f 256/12/1 251/15/1 254/8/1
f 256/13/6 255/11/6 253/2/6
f 261/2/4 260/10/4 257/3/4
f 259/5/5 264/13/5 258/6/5
f 262/8/2 259/14/2 257/9/2
f 263/11/3 262/8/3 260/10/3
f 264/12/1 259/15/1 262/8/1
f 264/13/6 263/11/6 261/2/6
f 269/2/4 268/10/4 265/3/4
f 267/5/5 272/13/5 266/6/5
f 270/8/2 267/14/2 265/9/2
f 271/11/3 270/8/3 268/10/3
f 272/12/1 267/15/1 270/8/1
f 272/13/6 271/11/6 269/2/6
f 277/2/4 276/10/4 273/3/4
f 275/5/5 280/13/5 274/6/5
f 278/8/2 275/14/2 273/9/2
f 279/11/3 278/8/3 276/10/3
f 280/12/1 275/15/1 278/8/1
f 280/13/6 279/11/6 277/2/6
f 285/2/4 284/10/4 281/3/4
f 283/5/5 288/13/5 282/6/5
f 286/8/2 283/14/2 281/9/2
f 287/11/3 286/8/3 284/10/3
f 288/12/1 283/15/1 286/8/1
f 288/13/6 287/11/6 285/2/6
f 293/2/4 292/10/4 289/3/4
f 291/5/5 296/13/5 290/6/5
f 294/8/2 291/14/2 289/9/2
f 295/11/3 294/8/3 292/10/3
f 296/12/1 291/15/1 294/8/1
f 296/13/6 295/11/6 293/2/6
f 301/2/4 300/10/4 297/3/4
f 299/5/5 304/13/5 298/6/5
f 302/8/2 299/14/2 297/9/2
f 303/11/3 302/8/3 300/10/3
f 304/12/1 299/15/1 302/8/1
f 304/13/6 303/11/6 301/2/6
f 309/2/4 308/10/4 305/3/4
f 307/5/5 312/13/5 306/6/5
f 310/8/2 307/14/2 305/9/2
f 311/11/3 310/8/3 308/10/3
f 312/12/1 307/15/1 310/8/1
f 312/13/6 311/11/6 309/2/6
f 317/2/4 316/10/4 313/3/4
f 315/5/5 320/13/5 314/6/5
f 318/8/2 315/14/2 313/9/2
f 319/11/3 318/8/3 316/10/3
f 320/12/1 315/15/1 318/8/1
f 320/13/6 319/11/6 317/2/6
f 325/2/4 324/10/4 321/3/4
f 323/5/5 328/13/5 322/6/5
f 326/8/2 323/14/2 321/9/2
f 327/11/3 326/8/3 324/10/3
f 328/12/1 323/15/1 326/8/1
f 328/13/6 327/11/6 325/2/6
f 330/5/7 332/13/7 331/6/7
f 331/6/6 332/13/6 336/11/6
f 336/11/8 334/8/8 333/10/8
f 334/8/2 330/14/2 329/9/2
f 335/2/9 333/10/9 329/3/9
f 332/12/10 330/15/10 334/8/10
